<mxfile host="app.diagrams.net" agent="Mozilla/5.0 (X11; Linux x86_64; rv:131.0) Gecko/20100101 Firefox/131.0" version="24.9.3">
  <diagram name="Page-1" id="GAbDCw8YWcUz2ZCjJpux">
    <mxGraphModel dx="880" dy="441" grid="1" gridSize="10" guides="1" tooltips="1" connect="1" arrows="1" fold="1" page="1" pageScale="1" pageWidth="2000" pageHeight="2000" math="0" shadow="0">
      <root>
        <mxCell id="0" />
        <mxCell id="1" parent="0" />
        <mxCell id="VwhprwL9eRUREX6yI_Sk-39" style="edgeStyle=orthogonalEdgeStyle;rounded=0;orthogonalLoop=1;jettySize=auto;html=1;exitX=0.5;exitY=1;exitDx=0;exitDy=0;entryX=0.5;entryY=0;entryDx=0;entryDy=0;" edge="1" parent="1" source="VwhprwL9eRUREX6yI_Sk-1" target="VwhprwL9eRUREX6yI_Sk-35">
          <mxGeometry relative="1" as="geometry" />
        </mxCell>
        <mxCell id="VwhprwL9eRUREX6yI_Sk-1" value="Start" style="ellipse;whiteSpace=wrap;html=1;" vertex="1" parent="1">
          <mxGeometry x="40" width="120" height="80" as="geometry" />
        </mxCell>
        <mxCell id="VwhprwL9eRUREX6yI_Sk-40" style="edgeStyle=orthogonalEdgeStyle;rounded=0;orthogonalLoop=1;jettySize=auto;html=1;exitX=0.5;exitY=1;exitDx=0;exitDy=0;entryX=0.5;entryY=0;entryDx=0;entryDy=0;" edge="1" parent="1" source="VwhprwL9eRUREX6yI_Sk-35" target="VwhprwL9eRUREX6yI_Sk-36">
          <mxGeometry relative="1" as="geometry" />
        </mxCell>
        <mxCell id="VwhprwL9eRUREX6yI_Sk-35" value="enter rm, sm, pm, rz, sz, pz" style="shape=parallelogram;perimeter=parallelogramPerimeter;whiteSpace=wrap;html=1;fixedSize=1;" vertex="1" parent="1">
          <mxGeometry x="40" y="120" width="120" height="60" as="geometry" />
        </mxCell>
        <mxCell id="VwhprwL9eRUREX6yI_Sk-41" style="edgeStyle=orthogonalEdgeStyle;rounded=0;orthogonalLoop=1;jettySize=auto;html=1;exitX=0.5;exitY=1;exitDx=0;exitDy=0;entryX=0.5;entryY=0;entryDx=0;entryDy=0;" edge="1" parent="1" source="VwhprwL9eRUREX6yI_Sk-36" target="VwhprwL9eRUREX6yI_Sk-37">
          <mxGeometry relative="1" as="geometry" />
        </mxCell>
        <mxCell id="VwhprwL9eRUREX6yI_Sk-36" value="result = MIN(rm,sz) + MIN(sm,pz) + MIN(pm,rz)" style="rounded=0;whiteSpace=wrap;html=1;" vertex="1" parent="1">
          <mxGeometry x="40" y="220" width="120" height="60" as="geometry" />
        </mxCell>
        <mxCell id="VwhprwL9eRUREX6yI_Sk-42" style="edgeStyle=orthogonalEdgeStyle;rounded=0;orthogonalLoop=1;jettySize=auto;html=1;exitX=0.5;exitY=1;exitDx=0;exitDy=0;entryX=0.5;entryY=0;entryDx=0;entryDy=0;" edge="1" parent="1" source="VwhprwL9eRUREX6yI_Sk-37" target="VwhprwL9eRUREX6yI_Sk-38">
          <mxGeometry relative="1" as="geometry" />
        </mxCell>
        <mxCell id="VwhprwL9eRUREX6yI_Sk-37" value="print result" style="shape=parallelogram;perimeter=parallelogramPerimeter;whiteSpace=wrap;html=1;fixedSize=1;" vertex="1" parent="1">
          <mxGeometry x="40" y="320" width="120" height="60" as="geometry" />
        </mxCell>
        <mxCell id="VwhprwL9eRUREX6yI_Sk-38" value="End" style="ellipse;whiteSpace=wrap;html=1;" vertex="1" parent="1">
          <mxGeometry x="40" y="420" width="120" height="80" as="geometry" />
        </mxCell>
      </root>
    </mxGraphModel>
  </diagram>
</mxfile>
